<svg width="141" height="31" viewBox="0 0 141 31" fill="none" xmlns="http://www.w3.org/2000/svg">
<path d="M15.9775 9.392V7.84C15.9775 7.41333 16.1108 7.072 16.3775 6.816L16.9375 6.24L16.3775 5.696C16.1108 5.41867 15.9775 5.06667 15.9775 4.64V3.568C15.9775 1.82933 16.8468 0.959999 18.5855 0.959999H20.8255C22.5641 0.959999 23.4335 1.82933 23.4335 3.568V4.64C23.4335 5.06667 23.3001 5.41867 23.0335 5.696L22.4735 6.24L23.0335 6.816C23.3001 7.072 23.4335 7.41333 23.4335 7.84V9.392C23.4335 11.1307 22.5641 12 20.8255 12H18.5855C16.8468 12 15.9775 11.1307 15.9775 9.392ZM17.9455 9.536C17.9455 9.99467 18.1748 10.224 18.6335 10.224H20.7775C21.2361 10.224 21.4655 9.99467 21.4655 9.536V7.856C21.4655 7.39733 21.2361 7.168 20.7775 7.168H18.6335C18.1748 7.168 17.9455 7.39733 17.9455 7.856V9.536ZM17.9455 4.688C17.9455 5.15733 18.1748 5.392 18.6335 5.392H20.7775C21.2361 5.392 21.4655 5.15733 21.4655 4.688V3.424C21.4655 2.96533 21.2361 2.736 20.7775 2.736H18.6335C18.1748 2.736 17.9455 2.96533 17.9455 3.424V4.688ZM25.4675 12V9.92H27.5475V12H25.4675ZM29.5712 9.392V4.08C29.5712 2 30.6166 0.959999 32.7072 0.959999H35.4432L36.3872 1.696V2.736H32.6432C31.9072 2.736 31.5392 3.104 31.5392 3.84V5.232H34.4192C36.1579 5.232 37.0272 6.10133 37.0272 7.84V9.392C37.0272 11.1307 36.1579 12 34.4192 12H32.1792C30.4406 12 29.5712 11.1307 29.5712 9.392ZM31.5392 9.536C31.5392 9.99467 31.7686 10.224 32.2272 10.224H34.3712C34.8299 10.224 35.0592 9.99467 35.0592 9.536V7.696C35.0592 7.23733 34.8299 7.008 34.3712 7.008H31.5392V9.536ZM42.089 12.304L46.585 0.079999L48.153 0.655999L43.673 12.88L42.089 12.304ZM53.6599 12V10.224H56.2199V2.736H54.1239V1.696L55.0679 0.959999H58.1719V10.224H60.4759V12H53.6599ZM62.4619 9.392V3.568C62.4619 1.82933 63.3312 0.959999 65.0699 0.959999H67.3099C69.0485 0.959999 69.9179 1.82933 69.9179 3.568V9.392C69.9179 11.1307 69.0485 12 67.3099 12H65.0699C63.3312 12 62.4619 11.1307 62.4619 9.392ZM64.4299 9.536C64.4299 9.99467 64.6592 10.224 65.1179 10.224H67.2619C67.7205 10.224 67.9499 9.99467 67.9499 9.536V3.424C67.9499 2.96533 67.7205 2.736 67.2619 2.736H65.1179C64.6592 2.736 64.4299 2.96533 64.4299 3.424V9.536ZM74.9636 11.616L78.3716 0.959999H81.4116L84.8036 11.616L84.5636 12H82.9156L82.1636 9.568H77.6036L76.8356 12H75.2196L74.9636 11.616ZM78.1476 7.792H81.6356L80.0356 2.736H79.7316L78.1476 7.792ZM86.1847 9.472V6.128C86.1847 4.44267 87.0274 3.6 88.7127 3.6H91.7367L92.5847 4.224V5.232H88.7927C88.3021 5.232 88.0567 5.47733 88.0567 5.968V9.632C88.0567 10.1227 88.3021 10.368 88.7927 10.368H92.5847V11.376L91.7367 12H88.7127C87.0274 12 86.1847 11.1573 86.1847 9.472ZM94.4519 9.472V0.959999H96.3239V3.6H99.1879V5.232H96.3239V9.632C96.3239 10.1227 96.5692 10.368 97.0599 10.368H99.3479V11.376L98.4999 12H96.9799C95.2945 12 94.4519 11.1573 94.4519 9.472ZM101.077 2.144V0.24H103.045V2.144H101.077ZM101.125 12V3.6H102.997V12H101.125ZM105.263 9.472V6.128C105.263 4.44267 106.106 3.6 107.791 3.6H110.031C111.706 3.6 112.543 4.44267 112.543 6.128V9.472C112.543 11.1573 111.706 12 110.031 12H107.791C106.106 12 105.263 11.1573 105.263 9.472ZM107.135 9.632C107.135 10.1227 107.38 10.368 107.871 10.368H109.935C110.426 10.368 110.671 10.1227 110.671 9.632V5.968C110.671 5.47733 110.426 5.232 109.935 5.232H107.871C107.38 5.232 107.135 5.47733 107.135 5.968V9.632ZM114.813 12V3.6H119.421C121.095 3.6 121.933 4.44267 121.933 6.128V12H120.061V5.968C120.061 5.47733 119.815 5.232 119.325 5.232H116.685V12H114.813ZM123.706 7.936V6.304H128.394V7.936H123.706ZM16.4415 27V15.96H21.7535C23.4921 15.96 24.3615 16.8293 24.3615 18.568V20.376C24.3615 21.72 23.8281 22.536 22.7615 22.824L24.6815 26.584L24.4415 27H22.7775L20.7295 22.968H18.3935V27H16.4415ZM18.3935 21.192H21.7055C22.1748 21.192 22.4095 20.9573 22.4095 20.488V18.424C22.4095 17.9653 22.1748 17.736 21.7055 17.736H18.3935V21.192ZM26.594 30.2V18.6H31.202C32.8766 18.6 33.714 19.4427 33.714 21.128V24.472C33.714 26.1573 32.8766 27 31.202 27H28.466V30.2H26.594ZM28.466 25.368H31.106C31.5966 25.368 31.842 25.1227 31.842 24.632V20.968C31.842 20.4773 31.5966 20.232 31.106 20.232H28.466V25.368ZM35.8086 24.472V21.128C35.8086 19.4427 36.6513 18.6 38.3366 18.6H42.9446V27.672C42.9446 29.3573 42.1019 30.2 40.4166 30.2H37.3606L36.5126 29.576V28.568H40.3366C40.8273 28.568 41.0726 28.3227 41.0726 27.832V27H38.3366C36.6513 27 35.8086 26.1573 35.8086 24.472ZM37.6806 24.632C37.6806 25.1227 37.9259 25.368 38.4166 25.368H41.0726V20.232H38.4166C37.9259 20.232 37.6806 20.4773 37.6806 20.968V24.632ZM44.5131 29L45.4411 24.92H47.2491L47.4411 25.224L45.9051 29.336L44.5131 29Z" fill="white"/>
<path d="M10.8547 6.16434L7.70713 5.62479L6.30008 2.26028C6.26165 2.16816 6.19842 2.09359 6.12032 2.04826C5.92445 1.93421 5.68643 2.02925 5.58849 2.26028L4.18144 5.62479L1.03387 6.16434C0.947088 6.17896 0.867748 6.22721 0.807003 6.30032C0.733565 6.38935 0.693098 6.50912 0.694493 6.63332C0.695888 6.75752 0.73903 6.87599 0.814441 6.96269L3.09175 9.58149L2.55373 13.2794C2.54111 13.3654 2.54918 13.4539 2.57702 13.5348C2.60487 13.6156 2.65137 13.6857 2.71125 13.737C2.77114 13.7883 2.84201 13.8188 2.91584 13.825C2.98967 13.8312 3.06349 13.8129 3.12895 13.7721L5.94428 12.0263L8.75963 13.7721C8.83649 13.8204 8.92574 13.8365 9.01128 13.8189C9.22699 13.7751 9.37203 13.5338 9.33484 13.2794L8.79682 9.58149L11.0741 6.96269C11.1361 6.89105 11.177 6.79747 11.1894 6.69511C11.2229 6.43923 11.0717 6.20235 10.8547 6.16434Z" fill="#FC8B40"/>
</svg>
