<svg width="115" height="16" viewBox="0 0 115 16" fill="none" xmlns="http://www.w3.org/2000/svg">
<path d="M38.5608 6.4915L34.4903 5.91248L32.6706 2.30178C32.6209 2.20292 32.5392 2.12289 32.4382 2.07425C32.1849 1.95185 31.877 2.05385 31.7504 2.30178L29.9308 5.91248L25.8602 6.4915C25.748 6.5072 25.6454 6.55898 25.5668 6.63744C25.4719 6.73298 25.4195 6.86152 25.4213 6.99481C25.4231 7.1281 25.4789 7.25523 25.5765 7.34828L28.5215 10.1587L27.8258 14.1272C27.8094 14.2195 27.8199 14.3144 27.8559 14.4012C27.8919 14.488 27.952 14.5632 28.0295 14.6183C28.1069 14.6733 28.1986 14.706 28.294 14.7127C28.3895 14.7194 28.485 14.6997 28.5696 14.656L32.2105 12.7824L35.8514 14.656C35.9508 14.7078 36.0662 14.725 36.1768 14.7062C36.4558 14.6591 36.6434 14.4002 36.5953 14.1272L35.8995 10.1587L38.8446 7.34828C38.9247 7.27139 38.9776 7.17096 38.9937 7.06112C39.0369 6.78651 38.8414 6.5323 38.5608 6.4915Z" fill="white"/>
<path d="M57.1665 6.4915L53.0959 5.91248L51.2763 2.30178C51.2266 2.20292 51.1448 2.12289 51.0438 2.07425C50.7905 1.95185 50.4827 2.05385 50.3561 2.30178L48.5364 5.91248L44.4659 6.4915C44.3537 6.5072 44.2511 6.55898 44.1725 6.63744C44.0776 6.73298 44.0252 6.86152 44.027 6.99481C44.0288 7.1281 44.0846 7.25523 44.1821 7.34828L47.1272 10.1587L46.4314 14.1272C46.4151 14.2195 46.4256 14.3144 46.4616 14.4012C46.4976 14.488 46.5577 14.5632 46.6352 14.6183C46.7126 14.6733 46.8043 14.706 46.8997 14.7127C46.9952 14.7194 47.0907 14.6997 47.1753 14.656L50.8162 12.7824L54.4571 14.656C54.5565 14.7078 54.6719 14.725 54.7825 14.7062C55.0615 14.6591 55.249 14.4002 55.2009 14.1272L54.5052 10.1587L57.4502 7.34828C57.5304 7.27139 57.5833 7.17096 57.5993 7.06112C57.6426 6.78651 57.447 6.5323 57.1665 6.4915Z" fill="white"/>
<path d="M76.8666 6.4915L72.7961 5.91248L70.9765 2.30178C70.9268 2.20292 70.845 2.12289 70.744 2.07425C70.4907 1.95185 70.1829 2.05385 70.0562 2.30178L68.2366 5.91248L64.1661 6.4915C64.0538 6.5072 63.9512 6.55898 63.8727 6.63744C63.7777 6.73298 63.7254 6.86152 63.7272 6.99481C63.729 7.1281 63.7848 7.25523 63.8823 7.34828L66.8274 10.1587L66.1316 14.1272C66.1153 14.2195 66.1257 14.3144 66.1617 14.4012C66.1977 14.488 66.2579 14.5632 66.3353 14.6183C66.4128 14.6733 66.5044 14.706 66.5999 14.7127C66.6954 14.7194 66.7908 14.6997 66.8755 14.656L70.5164 12.7824L74.1572 14.656C74.2566 14.7078 74.3721 14.725 74.4827 14.7062C74.7616 14.6591 74.9492 14.4002 74.9011 14.1272L74.2053 10.1587L77.1504 7.34828C77.2306 7.27139 77.2835 7.17096 77.2995 7.06112C77.3428 6.78651 77.1472 6.5323 76.8666 6.4915Z" fill="white"/>
<path d="M95.4723 6.4915L91.4018 5.91248L89.5822 2.30178C89.5325 2.20292 89.4507 2.12289 89.3497 2.07425C89.0964 1.95185 88.7886 2.05385 88.6619 2.30178L86.8423 5.91248L82.7718 6.4915C82.6595 6.5072 82.5569 6.55898 82.4784 6.63744C82.3834 6.73298 82.3311 6.86152 82.3329 6.99481C82.3347 7.1281 82.3905 7.25523 82.488 7.34828L85.4331 10.1587L84.7373 14.1272C84.721 14.2195 84.7314 14.3144 84.7674 14.4012C84.8034 14.488 84.8636 14.5632 84.941 14.6183C85.0184 14.6733 85.1101 14.706 85.2056 14.7127C85.3011 14.7194 85.3965 14.6997 85.4812 14.656L89.122 12.7824L92.7629 14.656C92.8623 14.7078 92.9777 14.725 93.0884 14.7062C93.3673 14.6591 93.5549 14.4002 93.5068 14.1272L92.811 10.1587L95.7561 7.34828C95.8362 7.27139 95.8892 7.17096 95.9052 7.06112C95.9485 6.78651 95.7529 6.5323 95.4723 6.4915Z" fill="white"/>
<path d="M102.993 13.9391C102.97 14.0322 102.969 14.129 102.992 14.2222C103.014 14.3155 103.059 14.4028 103.123 14.4776C103.186 14.5524 103.267 14.6127 103.359 14.6541C103.452 14.6955 103.553 14.7168 103.655 14.7165C103.789 14.7166 103.92 14.6795 104.032 14.6099L107.73 12.3062L111.427 14.6099C111.543 14.6817 111.68 14.7186 111.818 14.7158C111.957 14.7129 112.092 14.6704 112.204 14.594C112.316 14.5176 112.401 14.4108 112.446 14.2882C112.491 14.1656 112.495 14.0329 112.458 13.908L111.216 9.8463L114.296 7.25569C114.395 7.17267 114.465 7.06445 114.499 6.94441C114.532 6.82437 114.527 6.69777 114.485 6.58027C114.442 6.46277 114.364 6.35953 114.259 6.28331C114.154 6.20709 114.028 6.16123 113.895 6.15142L110.024 5.86329L108.348 2.39751C108.295 2.28589 108.208 2.19108 108.098 2.12453C107.989 2.05798 107.861 2.02253 107.73 2.02246C107.599 2.02239 107.471 2.05771 107.361 2.12415C107.251 2.19059 107.164 2.28531 107.111 2.39688L105.436 5.86329L101.564 6.15078C101.434 6.16041 101.31 6.20486 101.206 6.27881C101.102 6.35276 101.023 6.45307 100.979 6.56776C100.935 6.68245 100.927 6.80664 100.956 6.92549C100.985 7.04434 101.05 7.15281 101.144 7.23792L104.005 9.84439L102.993 13.9391ZM107.73 4.19989L109.116 7.06911L109.516 7.09894H109.516L112.214 7.29885L109.992 9.16723L109.992 9.1685L109.677 9.43251L109.793 9.81139V9.8133L110.644 12.5962L107.73 10.7805V4.19989Z" fill="white"/>
<path d="M5.94468 11.9512H6.97593V10.1993H8.1771V9.25592H6.97593V3.49615H5.44663C3.92319 5.77545 2.5814 7.89655 1.82554 9.23834V10.1993H5.94468V11.9512ZM2.90366 9.19147C3.91147 7.48053 5.01304 5.73444 5.88022 4.47467H5.95054V9.26178H2.90366V9.19147ZM10.2337 12.0098C10.6556 12.0098 10.9955 11.6641 10.9955 11.2481C10.9955 10.8262 10.6556 10.4864 10.2337 10.4864C9.81772 10.4864 9.47202 10.8262 9.47202 11.2481C9.47202 11.6641 9.81772 12.0098 10.2337 12.0098ZM15.3607 12.1505C17.1126 12.1505 18.3138 10.9786 18.3138 9.26178C18.3138 7.59772 17.1888 6.4317 15.5833 6.4317C14.8041 6.4317 14.2064 6.67194 13.7962 7.1524H13.7025L13.9427 4.43951H17.8333V3.49615H13.1166L12.6537 8.28912H13.6439C13.9896 7.68561 14.6224 7.3399 15.39 7.3399C16.4974 7.3399 17.2591 8.13092 17.2591 9.29108C17.2591 10.4512 16.5033 11.2247 15.3724 11.2247C14.3763 11.2247 13.6498 10.6153 13.556 9.70123H12.5189C12.6126 11.1602 13.7611 12.1505 15.3607 12.1505Z" fill="#22283C"/>
</svg>
