<svg width="93" height="14" viewBox="0 0 93 14" fill="none" xmlns="http://www.w3.org/2000/svg">
<path d="M31.9054 5.16254L28.6588 4.62299L27.2074 1.25848C27.1678 1.16636 27.1026 1.09179 27.022 1.04646C26.82 0.932406 26.5745 1.02745 26.4735 1.25848L25.0221 4.62299L21.7755 5.16254C21.686 5.17716 21.6042 5.22541 21.5415 5.29852C21.4658 5.38755 21.424 5.50732 21.4255 5.63152C21.4269 5.75572 21.4714 5.87419 21.5492 5.96089L23.8982 8.57968L23.3432 12.2776C23.3302 12.3636 23.3385 12.4521 23.3672 12.533C23.3959 12.6138 23.4439 12.6839 23.5057 12.7352C23.5674 12.7865 23.6406 12.817 23.7167 12.8232C23.7929 12.8294 23.869 12.8111 23.9365 12.7703L26.8404 11.0245L29.7444 12.7703C29.8237 12.8186 29.9157 12.8347 30.004 12.8171C30.2265 12.7733 30.3761 12.532 30.3377 12.2776L29.7827 8.57968L32.1317 5.96089C32.1957 5.88925 32.2379 5.79567 32.2506 5.69331C32.2852 5.43743 32.1292 5.20055 31.9054 5.16254Z" fill="#FC8B40"/>
<path d="M46.7452 5.16254L43.4985 4.62299L42.0472 1.25848C42.0076 1.16636 41.9424 1.09179 41.8618 1.04646C41.6598 0.932406 41.4143 1.02745 41.3132 1.25848L39.8619 4.62299L36.6153 5.16254C36.5258 5.17716 36.4439 5.22541 36.3813 5.29852C36.3055 5.38755 36.2638 5.50732 36.2652 5.63152C36.2667 5.75572 36.3112 5.87419 36.389 5.96089L38.7379 8.57968L38.183 12.2776C38.17 12.3636 38.1783 12.4521 38.207 12.533C38.2357 12.6138 38.2837 12.6839 38.3455 12.7352C38.4072 12.7865 38.4803 12.817 38.5565 12.8232C38.6326 12.8294 38.7088 12.8111 38.7763 12.7703L41.6802 11.0245L44.5842 12.7703C44.6634 12.8186 44.7555 12.8347 44.8437 12.8171C45.0662 12.7733 45.2158 12.532 45.1775 12.2776L44.6225 8.57968L46.9715 5.96089C47.0354 5.88925 47.0776 5.79567 47.0904 5.69331C47.1249 5.43743 46.9689 5.20055 46.7452 5.16254Z" fill="#FC8B40"/>
<path d="M62.4579 5.16254L59.2113 4.62299L57.7599 1.25848C57.7203 1.16636 57.6551 1.09179 57.5745 1.04646C57.3725 0.932406 57.127 1.02745 57.0259 1.25848L55.5746 4.62299L52.328 5.16254C52.2385 5.17716 52.1566 5.22541 52.094 5.29852C52.0182 5.38755 51.9765 5.50732 51.9779 5.63152C51.9794 5.75572 52.0239 5.87419 52.1017 5.96089L54.4506 8.57968L53.8957 12.2776C53.8827 12.3636 53.891 12.4521 53.9197 12.533C53.9484 12.6138 53.9964 12.6839 54.0582 12.7352C54.1199 12.7865 54.193 12.817 54.2692 12.8232C54.3453 12.8294 54.4215 12.8111 54.489 12.7703L57.3929 11.0245L60.2969 12.7703C60.3762 12.8186 60.4682 12.8347 60.5565 12.8171C60.7789 12.7733 60.9286 12.532 60.8902 12.2776L60.3352 8.57968L62.6842 5.96089C62.7481 5.88925 62.7903 5.79567 62.8031 5.69331C62.8377 5.43743 62.6817 5.20055 62.4579 5.16254Z" fill="#FC8B40"/>
<path d="M77.2977 5.16254L74.051 4.62299L72.5997 1.25848C72.5601 1.16636 72.4949 1.09179 72.4143 1.04646C72.2123 0.932406 71.9668 1.02745 71.8657 1.25848L70.4144 4.62299L67.1678 5.16254C67.0783 5.17716 66.9964 5.22541 66.9338 5.29852C66.858 5.38755 66.8163 5.50732 66.8177 5.63152C66.8192 5.75572 66.8637 5.87419 66.9414 5.96089L69.2904 8.57968L68.7355 12.2776C68.7225 12.3636 68.7308 12.4521 68.7595 12.533C68.7882 12.6138 68.8362 12.6839 68.898 12.7352C68.9597 12.7865 69.0328 12.817 69.109 12.8232C69.1851 12.8294 69.2613 12.8111 69.3288 12.7703L72.2327 11.0245L75.1367 12.7703C75.2159 12.8186 75.308 12.8347 75.3962 12.8171C75.6187 12.7733 75.7683 12.532 75.73 12.2776L75.175 8.57968L77.524 5.96089C77.5879 5.88925 77.6301 5.79567 77.6429 5.69331C77.6774 5.43743 77.5214 5.20055 77.2977 5.16254Z" fill="#FC8B40"/>
<path d="M83.296 12.1023C83.2774 12.1891 83.2771 12.2793 83.295 12.3662C83.3129 12.4531 83.3486 12.5344 83.3994 12.6041C83.4502 12.6738 83.5148 12.7301 83.5884 12.7686C83.6619 12.8072 83.7425 12.8271 83.8241 12.8268C83.9311 12.8268 84.0357 12.7922 84.1247 12.7274L87.074 10.5807L90.0233 12.7274C90.1156 12.7943 90.2244 12.8287 90.3351 12.8261C90.4458 12.8234 90.5532 12.7838 90.6427 12.7126C90.7321 12.6414 90.7995 12.5419 90.8357 12.4276C90.8719 12.3134 90.8751 12.1897 90.845 12.0734L89.8543 8.28859L92.3113 5.87462C92.39 5.79726 92.4462 5.69642 92.4729 5.58456C92.4997 5.4727 92.4958 5.35473 92.4618 5.24525C92.4278 5.13576 92.3652 5.03956 92.2816 4.96854C92.198 4.89751 92.0973 4.85478 91.9917 4.84564L88.9037 4.57715L87.5675 1.34768C87.5249 1.24367 87.4557 1.15532 87.3682 1.09331C87.2806 1.03129 87.1785 0.998262 87.0742 0.9982C86.9699 0.998137 86.8677 1.03105 86.7801 1.09295C86.6925 1.15486 86.6232 1.24313 86.5806 1.34709L85.2443 4.57715L82.1563 4.84504C82.0526 4.85402 81.9534 4.89544 81.8706 4.96434C81.7879 5.03325 81.7251 5.12673 81.6897 5.23359C81.6543 5.34046 81.6479 5.45619 81.6712 5.56693C81.6945 5.67768 81.7465 5.77875 81.821 5.85806L84.1036 8.28682L83.296 12.1023ZM87.074 3.02717L88.1801 5.70076L88.4986 5.72855H88.4991L90.6506 5.91483L88.8788 7.65583L88.8783 7.65701L88.6275 7.90302L88.7201 8.25607V8.25784L89.3988 10.851L87.074 9.15909V3.02717Z" fill="#FC8B40"/>
<path d="M5.05013 11H6.08138V9.24805H7.28255V8.30469H6.08138V2.54492H4.55208C3.02864 4.82422 1.68684 6.94531 0.930984 8.28711V9.24805H5.05013V11ZM2.00911 8.24023C3.01692 6.5293 4.11848 4.7832 4.98567 3.52344H5.05598V8.31055H2.00911V8.24023ZM9.33919 11.0586C9.76106 11.0586 10.1009 10.7129 10.1009 10.2969C10.1009 9.875 9.76106 9.53516 9.33919 9.53516C8.92317 9.53516 8.57747 9.875 8.57747 10.2969C8.57747 10.7129 8.92317 11.0586 9.33919 11.0586ZM14.4661 11.1992C16.2181 11.1992 17.4193 10.0273 17.4193 8.31055C17.4193 6.64648 16.2943 5.48047 14.6888 5.48047C13.9095 5.48047 13.3118 5.7207 12.9017 6.20117H12.8079L13.0482 3.48828H16.9388V2.54492H12.222L11.7591 7.33789H12.7493C13.095 6.73438 13.7279 6.38867 14.4954 6.38867C15.6029 6.38867 16.3646 7.17969 16.3646 8.33984C16.3646 9.5 15.6087 10.2734 14.4779 10.2734C13.4818 10.2734 12.7552 9.66406 12.6615 8.75H11.6243C11.7181 10.209 12.8665 11.1992 14.4661 11.1992Z" fill="#22283C"/>
</svg>
